name processed_emg_signals
nRows=50
nColumns=7
 
endheader
time	LGLTMED	LRF	LADDLONG	LST	LTA	LGM
0.627	0.3146450093655527	0.3097769132273037	0.4440180358490033	0.8716700652928808	0.8556211516259266	0.754175912304278
0.628	0.3151692713948733	0.3100023289587698	0.4467598472292378	0.8785558023807682	0.8548426233528265	0.7561188861190495
0.629	0.3157592389132611	0.3103240082685491	0.4495843379037478	0.8852865501359911	0.8539324842813377	0.7579333422235881
0.63	0.3164178356264652	0.3107448292955596	0.4524919307063678	0.8918584886593928	0.8528919840979968	0.7596178784394462
0.631	0.3171479629867543	0.311267645546567	0.4554830068856936	0.8982678634272208	0.8517224854800931	0.7611711799899484
0.632	0.3179524951814046	0.3118952802214081	0.4585579020258856	0.9045109882973508	0.8504254601662109	0.7625920238320515
0.633	0.3188342740966224	0.312630520345849	0.4617169019235116	0.9105842486274324	0.8490024848373232	0.7638792830191846
0.634	0.3197961042668179	0.3134761107298413	0.4649602384358868	0.9164841044975364	0.8474552368300685	0.765031931068846
0.635	0.3208407478197009	0.3144347477719172	0.4682880853162263	0.9222070940289794	0.8457854897032796	0.7660490463066277
0.636	0.3219709194280067	0.315509073131938	0.4717005540509943	0.9277498367917612	0.8439951086784997	0.766929816157245
0.637	0.3231892812789655	0.3167016672953237	0.4751976897157715	0.933109037295305	0.8420860459746747	0.767673541352992
0.638	0.3244984380725352	0.3180150430521223	0.4787794668662399	0.9382814885608256	0.8400603360568436	0.7682796400304863
0.639	0.3259009320598128	0.319451638914878	0.4824457854816608	0.9432640757766936	0.837920090817718	0.7687476516876418
0.64	0.3273992381323578	0.3210138124995616	0.4861964669779465	0.9480537800396056	0.8356674947099016	0.769077240973898
0.641	0.3289957589734357	0.3227038338942104	0.4900312503077456	0.9526476821838242	0.8333047998446456	0.7692682012883307
0.642	0.3306928202811652	0.3245238790396742	0.4939497881643141	0.9570429666996564	0.8308343210708932	0.7693204581616819
0.643	0.3324926660734935	0.3264760231466983	0.4979516433046518	0.9612369257411124	0.8282584310462414	0.7692340724003218
0.644	0.3343974540845768	0.3285622341731081	0.5020362850082247	0.9652269632214264	0.8255795553097856	0.769009242972826
0.645	0.3364092512613343	0.3307843663839324	0.5062030856864417	0.9690105989929964	0.8228001673661619	0.7686463096224775
0.646	0.3385300293698111	0.333144154016847	0.5104513176589672	0.97258547310582	0.8199227837900713	0.7681457551913154
0.647	0.3407616607198185	0.3356432050740414	0.5147801501126842	0.9759493501352684	0.8169499593614237	0.7675082076419517
0.648	0.3431059140176223	0.3382829952608776	0.5191886462588139	0.9791001235671842	0.813884282242276	0.7667344417632261
0.649	0.3455644503554033	0.3410648620907476	0.5236757607036735	0.9820358202254644	0.8107283692078754	0.7658253805450507
0.65	0.3481388193474866	0.3439899991748663	0.5282403370475511	0.9847546047253952	0.8074848609444418	0.7647820962067579
0.651	0.3508304554230092	0.3470594507150483	0.5328811057262708	0.9872547839344308	0.8041564174263603	0.7636058108630878
0.652	0.3536406742850254	0.3502741062169483	0.5375966821094958	0.9895348114206756	0.800745713385618	0.7622978968123454
0.653	0.3565706695461386	0.353634695440701	0.5423855648694615	0.9915932918676446	0.7972554338870683	0.7608598764327019
0.654	0.359621509550328	0.3571417836051196	0.5472461346333235	0.9934289854323548	0.793688270024212	0.7592934216759519
0.655	0.3627941343902935	0.3607957668606613	0.5521766529309026	0.9950408120222816	0.7900469147508214	0.7576003531520598
0.656	0.3660893531286782	0.3645968680454954	0.5571752614485987	0.9964278554658396	0.7863340588637651	0.7557826388029744
0.657	0.3695078412310174	0.3685451327377675	0.5622399815990086	0.9975893675506102	0.7825523871512565	0.7538423921685735
0.658	0.3730501382170611	0.3726404256163336	0.5673687144132703	0.998524771903676	0.7787045747189592	0.7517818702507836
0.659	0.3767166455367843	0.3768824271412517	0.57255924076249	0.999233667689167	0.774793283504077	0.7496034709837212
0.66	0.3805076246766642	0.3812706305644536	0.57780922191217	0.9997158330984236	0.7708211589849245	0.7473097303188957
0.661	0.3844231955013059	0.385804339280457	0.5831162004123124	0.9999712286101776	0.7667908270910492	0.7449033189357077
0.662	0.3884633348348983	0.3904826645262914	0.5884776013247516	1.0	0.7627048913165807	0.7423870385885936
0.663	0.3926278752864393	0.3953045234388387	0.5938907337886975	0.9998024810814194	0.7585659300375492	0.7397638181029366
0.664	0.3969165043219174	0.4002686374775828	0.599352792925131	0.999379196164312	0.7543764940322698	0.7370367090316633
0.665	0.4013287635861581	0.4053735312198849	0.6048608620799342	0.998730862218432	0.7501391042026395	0.7342088809843539
0.666	0.4058640484770235	0.410617531535396	0.6104119154059232	0.9978583907309906	0.7458562494930657	0.7312836166396752
0.667	0.4105216079744051	0.4159987671453482	0.6160028207816796	0.996762889246866	0.7415303850027409	0.7282643064509281
0.668	0.4153005447265012	0.4215151685711336	0.6216303430646725	0.9954456625785956	0.7371639302856325	0.7251544430532303
0.669	0.4201998153951576	0.4271644684755687	0.6272911476753507	0.9939082136714832	0.732759267831424	0.721957615379697
0.67	0.4252182312617869	0.4329442023987942	0.6329818045073544	0.9921522441078068	0.7283187417196917	0.7186775024936272
0.671	0.4303544590943799	0.4388517098894524	0.6386987921586622	0.9901796542332976	0.7238446564394814	0.7153178671435129
0.672	0.4356070222749453	0.4448841360306917	0.6444385024770077	0.987992542891072	0.7193392758668684	0.7118825490484582
0.673	0.4409743021864786	0.4510384333593888	0.6501972454119919	0.9855932067516132	0.7148048223936734	0.7083754579223225
0.674	0.4464545398572314	0.4573113641763814	0.6559712541644787	0.9829841392332131	0.7102434762006852	0.7048005662468213
0.675	0.4520458378595317	0.4636995032448796	0.6617566906224014	0.9801680290122674	0.705657374668247	0.7011619018062464
0.676	0.4577461624600572	0.4701992408737281	0.6675496510705831	0.977147758126804	0.7010486119161512	0.697463540000151
